<svg xmlns="http://www.w3.org/2000/svg" width="111" height="13"><path fill="#FFF" fill-rule="evenodd" d="M106.24 12.988c-3.55 0-4.76-3.008-4.76-6.398 0-3.391 1.226-6.399 4.76-6.399 3.582 0 4.76 2.991 4.76 6.399 0 3.443-1.162 6.398-4.76 6.398zm0-12.101c-3.082 0-4.018 2.799-4.018 5.703 0 2.886.904 5.703 4.018 5.703 3.162 0 4.018-2.73 4.018-5.703 0-2.974-.872-5.703-4.018-5.703zm-9.956 3.651c2.388 0 4.228 1.495 4.228 4.173 0 2.435-1.646 4.277-4.325 4.277-3.437 0-4.485-2.625-4.485-5.929 0-3.721.742-6.868 4.776-6.868 2.227 0 3.711 1.287 3.824 3.199h-.742C99.399 1.565 97.882.887 96.349.887c-3.502 0-3.905 3.268-3.905 6.207h.032c.355-1.182 1.581-2.556 3.808-2.556zm.016 7.755c2.034 0 3.47-1.391 3.47-3.582 0-1.982-1.211-3.478-3.437-3.478-2.372 0-3.695 1.461-3.695 3.478 0 1.269.613 3.582 3.662 3.582zm-5.582-2.817c0 2.035-1.437 3.512-4.357 3.512-2.76 0-4.454-1.338-4.486-4.346h.742c0 2.555 1.388 3.651 3.824 3.651 1.582 0 3.534-.522 3.534-2.991 0-2.782-2.711-2.782-4.26-2.782v-.695c1.743 0 3.97 0 3.97-2.295 0-2.052-1.517-2.643-3.179-2.643-2.146 0-3.582 1.008-3.582 3.407h-.742c.08-2.903 1.758-4.103 4.324-4.103 2.42 0 3.921 1.165 3.921 3.217 0 1.791-1.049 2.556-2.517 2.695v.035c1.113.035 2.808.747 2.808 3.338zm-11.441-.748c0 3.234-2.759 4.278-5.324 4.278-1.307 0-5.035-.504-5.067-4.469h3.55c0 .313.048.591.129.817.258.748 1.032.905 1.694.905.581 0 1.468-.209 1.468-1.131 0-.643-.5-.817-2.485-1.425-1.823-.557-3.904-1.096-3.904-3.6C69.338 1.234 71.613 0 73.985 0c2.501 0 4.711 1.026 4.808 4.051h-3.356c.065-.469-.129-.782-.42-.991-.29-.226-.693-.313-1.048-.313-.485 0-1.275.139-1.275.835.064.886 1.71 1.077 3.34 1.565 1.63.487 3.243 1.304 3.243 3.581zM68.531 12.71h-3.55c-.178-.626-.242-1.269-.29-1.912-.097-1.183-.194-2.417-1.598-2.417h-1.888v4.329h-3.55V.295h6.761c2.017 0 3.76 1.2 3.76 3.548 0 1.286-.549 2.642-1.727 3.112.969.4 1.566 1.547 1.695 3.095.048.608.064 2.086.387 2.66zm-5.664-9.459h-1.662V5.72h1.856c.662 0 1.565-.121 1.565-1.234 0-.782-.403-1.235-1.759-1.235zM46.618.295h9.537v3.182h-5.987v1.548h5.438v2.956h-5.438v1.547h6.164v3.182h-9.714V.295zm-11.036 0h9.536v3.182h-5.986v1.548h5.438v2.956h-5.438v1.547h6.163v3.182h-9.713V.295zM34.465 12.71h-3.549c-.178-.626-.242-1.269-.291-1.912-.097-1.183-.193-2.417-1.597-2.417H27.14v4.329h-3.55V.295h6.761c2.017 0 3.759 1.2 3.759 3.548 0 1.286-.548 2.642-1.726 3.112.968.4 1.565 1.547 1.694 3.095.049.608.065 2.086.387 2.66zm-5.663-9.459H27.14V5.72h1.855c.662 0 1.566-.121 1.566-1.234 0-.782-.404-1.235-1.759-1.235zm-9.843 7.686h-3.663l-.516 1.773h-3.566L15.458.295h3.469l4.195 12.415h-3.679l-.484-1.773zm-1.742-6.486h-.033l-1.113 3.826h2.178l-1.032-3.826zM5.744 9.911c1.194 0 1.662-.904 1.872-2.069h3.485c0 2.504-1.888 5.164-5.26 5.164C2.114 13.006 0 10.172 0 6.503 0 2.59 2.291 0 5.841 0c3.163.017 4.905 1.808 5.212 4.92H7.6c-.065-.452-.387-1.825-1.856-1.825-1.662 0-2.194 1.738-2.194 3.408 0 1.669.532 3.408 2.194 3.408z"/></svg>